Coordinates
version=1
nRows=21
nColumns=38
inDegrees=no

Units are S.I. units (second, meters, Newtons, ...)
If the header above contains a line with 'inDegrees', this indicates whether rotational values are in degrees (yes) or radians (no).

endheader
time	pelvis_tilt	pelvis_list	pelvis_rotation	pelvis_tx	pelvis_ty	pelvis_tz	hip_flexion_r	hip_adduction_r	hip_rotation_r	knee_angle_r	ankle_angle_r	subtalar_angle_r	mtp_angle_r	hip_flexion_l	hip_adduction_l	hip_rotation_l	knee_angle_l	ankle_angle_l	subtalar_angle_l	mtp_angle_l	lumbar_extension	lumbar_bending	lumbar_rotation	arm_flex_r	arm_add_r	arm_rot_r	elbow_flex_r	pro_sup_r	wrist_flex_r	wrist_dev_r	arm_flex_l	arm_add_l	arm_rot_l	elbow_flex_l	pro_sup_l	wrist_flex_l	wrist_dev_l
8.26	3.03819	1.21223	-1.53601	0.674221	2.01373	0.95882	-0.0445642	-0.172633	-0.332218	0.685406	-0.00313378	0	0	-0.187967	0.00843916	-0.300042	0.320928	-0.0358688	0	0	-0.420676	-0.0664443	0.112927	0.770439	-0.373067	0.390404	0.857865	1.5708	0	0	0.906204	-0.43653	1.5708	1.23384	1.5708	0	0
8.27	3.04513	1.21289	-1.5454	0.674446	2.01132	0.958383	-0.0370161	-0.18107	-0.323571	0.718321	0.00107079	0	0	-0.181839	0.0101975	-0.303528	0.326227	-0.0371859	0	0	-0.418155	-0.0692827	0.114952	0.771065	-0.373675	0.393369	0.856369	1.5708	0	0	0.90469	-0.435547	1.5708	1.23214	1.5708	0	0
8.28	3.05061	1.21319	-1.55259	0.674743	2.00881	0.95801	-0.0307604	-0.187683	-0.314006	0.750955	0.00502586	0	0	-0.17559	0.0106425	-0.306695	0.332772	-0.0383198	0	0	-0.416049	-0.0714209	0.11645	0.771501	-0.374012	0.395717	0.855228	1.5708	0	0	0.903525	-0.434945	1.5708	1.23064	1.5708	0	0
8.29	3.05578	1.21431	-1.55931	0.675226	2.00625	0.957531	-0.0237783	-0.193201	-0.302487	0.783889	0.00823848	0	0	-0.168463	0.0107604	-0.309552	0.338572	-0.0395377	0	0	-0.413037	-0.0735237	0.117954	0.771298	-0.374123	0.397406	0.854814	1.5708	0	0	0.902627	-0.434805	1.5708	1.22955	1.5708	0	0
8.3	3.05966	1.21491	-1.56426	0.675637	2.00375	0.957147	-0.0189414	-0.197628	-0.291777	0.815435	0.0106647	0	0	-0.162176	0.0103953	-0.312874	0.343378	-0.0407843	0	0	-0.410205	-0.0746305	0.119136	0.770484	-0.37447	0.399131	0.855003	1.5708	0	0	0.901241	-0.434591	1.5708	1.22799	1.5708	0	0
8.31	3.06321	1.21522	-1.56856	0.676006	2.00131	0.956837	-0.0156105	-0.201553	-0.281425	0.84568	0.0109471	0	0	-0.156354	0.0100068	-0.315241	0.34787	-0.0426711	0	0	-0.407424	-0.0752326	0.120075	0.768909	-0.374906	0.400432	0.855874	1.5708	0	0	0.899502	-0.434413	1.5708	1.22614	1.5708	0	0
8.32	3.06676	1.21558	-1.57251	0.676395	1.9989	0.956572	-0.0140104	-0.204553	-0.270928	0.873329	0.0102657	0	0	-0.150704	0.00971746	-0.315607	0.352171	-0.0450179	0	0	-0.404323	-0.0755777	0.120761	0.766614	-0.375357	0.401354	0.856981	1.5708	0	0	0.897343	-0.434322	1.5708	1.22426	1.5708	0	0
8.33	3.08156	1.21977	-1.58937	0.677225	1.9966	0.955679	-0.00696962	-0.211189	-0.256543	0.90299	0.0115006	0	0	-0.140578	0.0133976	-0.316845	0.357616	-0.0470614	0	0	-0.396359	-0.0811238	0.122333	0.762718	-0.374888	0.401211	0.858419	1.5708	0	0	0.895028	-0.435673	1.5708	1.22416	1.5708	0	0
8.34	3.01263	1.2054	-1.52264	0.67675	1.98988	0.95858	-0.0327089	-0.190676	-0.275531	0.898151	-0.014576	0	0	-0.145883	-0.014652	-0.314374	0.36158	-0.054168	0	0	-0.419515	-0.0535118	0.132445	0.77107	-0.383545	0.411707	0.859215	1.5708	0	0	0.908001	-0.422257	1.5708	1.20485	1.5708	0	0
8.35	3.01435	1.20265	-1.52525	0.676658	1.98819	0.958649	-0.0410458	-0.194849	-0.271415	0.919255	-0.0102201	0	0	-0.144514	-0.0147487	-0.31724	0.368437	-0.0545408	0	0	-0.416711	-0.0480318	0.129738	0.771265	-0.383375	0.412883	0.863123	1.5708	0	0	0.889843	-0.425177	1.5708	1.20383	1.5708	0	0
8.36	-3.11475	1.24748	-1.68538	0.681869	1.98892	0.950398	0.0274506	-0.238144	-0.215159	0.98428	0.028279	0	0	-0.0883578	0.0344738	-0.326215	0.37641	-0.0521841	0	0	-0.354975	-0.117115	0.132435	0.742599	-0.369495	0.393524	0.863995	1.5708	0	0	0.90253	-0.443392	1.5708	1.22941	1.5708	0	0
8.37	-3.10248	1.25047	-1.69862	0.682864	1.98649	0.949605	0.0272329	-0.239344	-0.203314	1.00348	0.032174	0	0	-0.0785473	0.0356237	-0.328199	0.382173	-0.0540404	0	0	-0.347624	-0.120204	0.133918	0.737729	-0.368334	0.391773	0.866786	1.5708	0	0	0.89999	-0.445418	1.5708	1.2296	1.5708	0	0
8.38	-3.10253	1.24996	-1.69704	0.683584	1.98401	0.949487	0.0187285	-0.237117	-0.197865	1.01614	0.0301283	0	0	-0.0732835	0.0328598	-0.327978	0.387243	-0.0565322	0	0	-0.344956	-0.118402	0.133661	0.733075	-0.367887	0.390486	0.87025	1.5708	0	0	0.897253	-0.446676	1.5708	1.22861	1.5708	0	0
8.39	-3.10025	1.25028	-1.69819	0.684364	1.98144	0.949233	0.0100852	-0.235928	-0.194016	1.02568	0.0268183	0	0	-0.066862	0.0308947	-0.327965	0.392279	-0.059197	0	0	-0.341297	-0.117238	0.133675	0.72834	-0.367382	0.389427	0.873993	1.5708	0	0	0.894539	-0.448054	1.5708	1.22734	1.5708	0	0
8.4	-3.09627	1.25084	-1.70468	0.685489	1.97856	0.948814	0.00354361	-0.234928	-0.185494	1.03402	0.0236905	0	0	-0.0601885	0.0294601	-0.331785	0.397141	-0.0620517	0	0	-0.337514	-0.117409	0.136898	0.724389	-0.366951	0.388341	0.878204	1.5708	0	0	0.892279	-0.449266	1.5708	1.2262	1.5708	0	0
8.41	-3.09091	1.25074	-1.7116	0.686487	1.9758	0.948473	-0.00628268	-0.235073	-0.180422	1.03813	0.0186329	0	0	-0.0550664	0.0289805	-0.33425	0.400381	-0.0651794	0	0	-0.334174	-0.117497	0.139307	0.719934	-0.366737	0.387189	0.883198	1.5708	0	0	0.889686	-0.450475	1.5708	1.22499	1.5708	0	0
8.42	-3.08732	1.25106	-1.71617	0.68735	1.97297	0.948189	-0.0177711	-0.234817	-0.17845	1.03807	0.0118663	0	0	-0.0498035	0.0280935	-0.335873	0.402982	-0.0682306	0	0	-0.330668	-0.116482	0.141126	0.715236	-0.36634	0.385505	0.888269	1.5708	0	0	0.886577	-0.451336	1.5708	1.22313	1.5708	0	0
8.43	-3.08454	1.25045	-1.71958	0.688173	1.97008	0.948032	-0.0322627	-0.23495	-0.179577	1.03368	0.00372918	0	0	-0.0463243	0.027423	-0.336906	0.403977	-0.0717809	0	0	-0.328255	-0.115071	0.142489	0.710793	-0.365797	0.383798	0.893063	1.5708	0	0	0.883529	-0.452187	1.5708	1.22085	1.5708	0	0
8.44	-3.08123	1.24951	-1.72393	0.689104	1.96704	0.947847	-0.0477098	-0.235657	-0.181646	1.02568	-0.00620526	0	0	-0.0438203	0.0271311	-0.338641	0.403553	-0.0758629	0	0	-0.326306	-0.113848	0.144344	0.706642	-0.36548	0.382471	0.898395	1.5708	0	0	0.880542	-0.452924	1.5708	1.21834	1.5708	0	0
8.45	-3.07835	1.24846	-1.72834	0.690078	1.96391	0.947656	-0.0644405	-0.236113	-0.184414	1.01327	-0.0173757	0	0	-0.0417889	0.0268278	-0.341067	0.402449	-0.0797759	0	0	-0.324706	-0.112442	0.146473	0.702686	-0.365176	0.381241	0.90412	1.5708	0	0	0.87722	-0.453566	1.5708	1.2162	1.5708	0	0
8.46	-3.07622	1.24731	-1.73212	0.691107	1.96063	0.947497	-0.0826344	-0.235865	-0.188235	0.997102	-0.0235358	0	0	-0.0403021	0.0265009	-0.343278	0.400349	-0.0837557	0	0	-0.323442	-0.110714	0.148735	0.698805	-0.364824	0.37974	0.910065	1.5708	0	0	0.87401	-0.454069	1.5708	1.21332	1.5708	0	0
